G04 Layer_Physical_Order=1*
G04 Layer_Color=255*
%FSLAX25Y25*%
%MOIN*%
G70*
G01*
G75*
%ADD10R,0.02756X0.03543*%
%ADD11R,0.03543X0.02756*%
%ADD12C,0.01000*%
%ADD13C,0.03000*%
%ADD14C,0.00600*%
%ADD15R,0.05905X0.05905*%
%ADD16C,0.05905*%
%ADD17R,0.05315X0.05315*%
%ADD18C,0.05315*%
%ADD19R,0.05905X0.05905*%
%ADD20R,0.05315X0.05315*%
G36*
X405452Y194599D02*
X380400D01*
Y190048D01*
X165548D01*
Y327953D01*
X405452D01*
Y194599D01*
D02*
G37*
%LPC*%
G36*
X249677Y277657D02*
X246500D01*
Y274480D01*
X248657D01*
X249048Y274558D01*
X249378Y274779D01*
X249600Y275110D01*
X249677Y275500D01*
Y277657D01*
D02*
G37*
G36*
X289177D02*
X286000D01*
Y274480D01*
X288158D01*
X288548Y274558D01*
X288878Y274779D01*
X289100Y275110D01*
X289177Y275500D01*
Y277657D01*
D02*
G37*
G36*
X285000D02*
X281823D01*
Y275500D01*
X281901Y275110D01*
X282122Y274779D01*
X282452Y274558D01*
X282842Y274480D01*
X285000D01*
Y277657D01*
D02*
G37*
G36*
Y281835D02*
X282842D01*
X282452Y281757D01*
X282122Y281536D01*
X281901Y281205D01*
X281823Y280815D01*
Y278657D01*
X285000D01*
Y281835D01*
D02*
G37*
G36*
X285500Y305537D02*
X283999Y305389D01*
X282555Y304951D01*
X281225Y304240D01*
X280059Y303283D01*
X279102Y302117D01*
X278391Y300787D01*
X277953Y299344D01*
X277805Y297843D01*
X277953Y296341D01*
X278163Y295649D01*
X277866Y295248D01*
X253635D01*
X253337Y295649D01*
X253547Y296341D01*
X253695Y297843D01*
X253547Y299344D01*
X253109Y300787D01*
X252398Y302117D01*
X251441Y303283D01*
X250275Y304240D01*
X248945Y304951D01*
X247501Y305389D01*
X246000Y305537D01*
X244499Y305389D01*
X243055Y304951D01*
X241725Y304240D01*
X240559Y303283D01*
X239602Y302117D01*
X238891Y300787D01*
X238453Y299344D01*
X238305Y297843D01*
X238453Y296341D01*
X238891Y294898D01*
X239602Y293568D01*
X240559Y292402D01*
X241725Y291445D01*
X242185Y291199D01*
X242259Y290704D01*
X218172Y266617D01*
X218005Y266400D01*
X217531Y266560D01*
Y275177D01*
X217542Y275241D01*
X217548Y275495D01*
X217568Y275560D01*
X217731Y275954D01*
X217762Y276186D01*
X217831Y276410D01*
X217848Y276837D01*
X217903Y277260D01*
X217873Y277492D01*
X217882Y277726D01*
X217787Y278142D01*
X217731Y278565D01*
X217642Y278781D01*
X217590Y279010D01*
X217531Y279121D01*
Y279157D01*
X217406Y280432D01*
X217034Y281657D01*
X216431Y282786D01*
X215618Y283776D01*
X214629Y284588D01*
X213499Y285192D01*
X212274Y285563D01*
X211000Y285689D01*
X209726Y285563D01*
X208501Y285192D01*
X207371Y284588D01*
X206382Y283776D01*
X205569Y282786D01*
X204966Y281657D01*
X204594Y280432D01*
X204469Y279157D01*
Y279121D01*
X204410Y279010D01*
X204358Y278781D01*
X204269Y278565D01*
X204213Y278142D01*
X204118Y277726D01*
X204127Y277492D01*
X204097Y277260D01*
X204152Y276837D01*
X204169Y276410D01*
X204238Y276186D01*
X204269Y275954D01*
X204432Y275560D01*
X204452Y275493D01*
X204455Y275452D01*
X204457Y275308D01*
X204469Y275229D01*
Y270245D01*
X204020Y270024D01*
X203793Y270198D01*
X202577Y270702D01*
X201272Y270874D01*
X197728D01*
X196423Y270702D01*
X195207Y270198D01*
X194731Y269833D01*
X194564Y269811D01*
X193226Y269257D01*
X192077Y268375D01*
X192077Y268375D01*
X190077Y266375D01*
X189196Y265227D01*
X188642Y263889D01*
X188452Y262453D01*
Y208000D01*
X188642Y206564D01*
X189196Y205226D01*
X190077Y204077D01*
X194577Y199577D01*
X195726Y198696D01*
X197064Y198142D01*
X198500Y197952D01*
X270500D01*
X271936Y198142D01*
X273274Y198696D01*
X274423Y199577D01*
X281348Y206503D01*
X281508Y206504D01*
X281635Y206522D01*
X283059Y206662D01*
X284558Y207117D01*
X285940Y207856D01*
X286500Y208315D01*
X287060Y207856D01*
X288442Y207117D01*
X289941Y206662D01*
X291500Y206509D01*
X293059Y206662D01*
X294558Y207117D01*
X295940Y207856D01*
X297151Y208849D01*
X298145Y210060D01*
X298883Y211442D01*
X299338Y212941D01*
X299491Y214500D01*
X299338Y216059D01*
X298883Y217558D01*
X298145Y218940D01*
X297151Y220151D01*
X295940Y221145D01*
X294558Y221883D01*
X293059Y222338D01*
X291500Y222491D01*
X289941Y222338D01*
X288442Y221883D01*
X287060Y221145D01*
X286500Y220685D01*
X285940Y221145D01*
X284558Y221883D01*
X283059Y222338D01*
X281500Y222491D01*
X279941Y222338D01*
X278442Y221883D01*
X277060Y221145D01*
X276500Y220685D01*
X275940Y221145D01*
X274558Y221883D01*
X273059Y222338D01*
X272047Y222437D01*
Y224000D01*
X271858Y225436D01*
X271304Y226774D01*
X270423Y227923D01*
X270423Y227923D01*
X262220Y236125D01*
X262388Y236596D01*
X263059Y236662D01*
X264558Y237117D01*
X265940Y237856D01*
X266500Y238315D01*
X267060Y237856D01*
X268442Y237117D01*
X269941Y236662D01*
X271500Y236509D01*
X273059Y236662D01*
X274558Y237117D01*
X275940Y237856D01*
X276500Y238315D01*
X277060Y237856D01*
X278442Y237117D01*
X279941Y236662D01*
X281500Y236509D01*
X283059Y236662D01*
X284558Y237117D01*
X285940Y237856D01*
X286500Y238315D01*
X287060Y237856D01*
X288442Y237117D01*
X289941Y236662D01*
X291500Y236509D01*
X293059Y236662D01*
X294558Y237117D01*
X295940Y237856D01*
X297151Y238849D01*
X298145Y240060D01*
X298883Y241442D01*
X299338Y242941D01*
X299491Y244500D01*
X299338Y246059D01*
X298883Y247558D01*
X298145Y248940D01*
X297151Y250151D01*
X295940Y251145D01*
X294558Y251883D01*
X293059Y252338D01*
X291500Y252491D01*
X289941Y252338D01*
X288442Y251883D01*
X287060Y251145D01*
X286500Y250685D01*
X285940Y251145D01*
X284558Y251883D01*
X283059Y252338D01*
X281635Y252478D01*
X281508Y252496D01*
X281348Y252497D01*
X272223Y261623D01*
X271074Y262504D01*
X269736Y263058D01*
X268300Y263247D01*
X231146D01*
X230955Y263709D01*
X242022Y274777D01*
X242622Y274779D01*
X242952Y274558D01*
X243342Y274480D01*
X245500D01*
Y278157D01*
X246000D01*
Y278657D01*
X249677D01*
Y280815D01*
X249600Y281205D01*
X249378Y281536D01*
X249381Y282136D01*
X251398Y284153D01*
X315004D01*
Y282349D01*
X306877Y274223D01*
X305996Y273074D01*
X305442Y271736D01*
X305253Y270300D01*
Y231357D01*
X305442Y229922D01*
X305996Y228584D01*
X306877Y227435D01*
X307299Y227013D01*
Y224500D01*
X307471Y223195D01*
X307975Y221978D01*
X308776Y220934D01*
X309488Y220388D01*
X309642Y219222D01*
X310196Y217884D01*
X311077Y216735D01*
X315957Y211855D01*
Y209343D01*
X316129Y208037D01*
X316632Y206821D01*
X317434Y205777D01*
X318478Y204975D01*
X319695Y204471D01*
X321000Y204299D01*
X326315D01*
X327620Y204471D01*
X328836Y204975D01*
X329881Y205777D01*
X330682Y206821D01*
X331186Y208037D01*
X331358Y209343D01*
Y214657D01*
X331186Y215963D01*
X330682Y217179D01*
X329881Y218224D01*
X328836Y219025D01*
X327620Y219529D01*
X326315Y219701D01*
X323802D01*
X321808Y221695D01*
X322025Y221978D01*
X322529Y223195D01*
X322701Y224500D01*
Y229815D01*
X322529Y231120D01*
X322025Y232336D01*
X321223Y233381D01*
X320179Y234182D01*
X318963Y234686D01*
X317657Y234858D01*
X316348D01*
Y240459D01*
X317499Y240808D01*
X318629Y241412D01*
X319618Y242224D01*
X319644Y242250D01*
X319764Y242287D01*
X319963Y242412D01*
X320179Y242502D01*
X320517Y242761D01*
X320878Y242989D01*
X321038Y243161D01*
X321223Y243303D01*
X321483Y243642D01*
X321773Y243954D01*
X321882Y244162D01*
X322025Y244348D01*
X322188Y244742D01*
X322221Y244804D01*
X322248Y244835D01*
X322349Y244938D01*
X322396Y245002D01*
X325422Y248027D01*
X325469Y248062D01*
X325489Y248085D01*
X325513Y248104D01*
X326029Y248601D01*
X326269Y248813D01*
X326553Y248851D01*
X326846Y248847D01*
X327203Y248938D01*
X327568Y248986D01*
X327838Y249098D01*
X328122Y249170D01*
X328443Y249350D01*
X328783Y249492D01*
X329015Y249670D01*
X329271Y249813D01*
X329535Y250070D01*
X329827Y250295D01*
X330005Y250527D01*
X330214Y250731D01*
X330403Y251048D01*
X330627Y251340D01*
X330738Y251611D01*
X330888Y251862D01*
X330963Y252127D01*
X331157Y252380D01*
X331258Y252623D01*
X331396Y252848D01*
X331509Y253229D01*
X331661Y253597D01*
X331696Y253857D01*
X331770Y254110D01*
X331781Y254507D01*
X331827Y254856D01*
X332070Y255143D01*
X332551Y255641D01*
X332595Y255700D01*
X336156Y259261D01*
X336598Y258997D01*
X336296Y258001D01*
X336148Y256500D01*
X336296Y254999D01*
X336734Y253555D01*
X337445Y252225D01*
X338402Y251059D01*
X339568Y250102D01*
X340898Y249391D01*
X342341Y248953D01*
X343843Y248805D01*
X345344Y248953D01*
X346787Y249391D01*
X348117Y250102D01*
X349283Y251059D01*
X350240Y252225D01*
X350951Y253555D01*
X351389Y254999D01*
X351537Y256500D01*
X351389Y258001D01*
X350951Y259445D01*
X350240Y260775D01*
X349518Y261655D01*
X349390Y261832D01*
Y269000D01*
X349390Y269000D01*
X349201Y270436D01*
X348647Y271774D01*
X348548Y271903D01*
Y276738D01*
X348659Y276852D01*
X348737Y276954D01*
X349644Y278060D01*
X350383Y279442D01*
X350838Y280941D01*
X350991Y282500D01*
X350878Y283652D01*
X351311Y284153D01*
X361702D01*
X362453Y283402D01*
Y251428D01*
X362226Y251406D01*
X361000Y251034D01*
X359871Y250431D01*
X359064Y249768D01*
X358778Y249650D01*
X358303Y249487D01*
X358172Y249398D01*
X358026Y249338D01*
X357628Y249032D01*
X357211Y248752D01*
X357107Y248633D01*
X356981Y248536D01*
X356676Y248138D01*
X356346Y247760D01*
X356276Y247618D01*
X356180Y247492D01*
X355988Y247028D01*
X355767Y246577D01*
X355752Y246502D01*
X355716Y246452D01*
X338724Y229461D01*
X337912Y228471D01*
X337308Y227342D01*
X336937Y226117D01*
X336811Y224843D01*
Y215980D01*
X336801Y215916D01*
X336795Y215663D01*
X336774Y215597D01*
X336611Y215203D01*
X336580Y214971D01*
X336511Y214747D01*
X336495Y214321D01*
X336439Y213898D01*
X336470Y213666D01*
X336461Y213432D01*
X336555Y213016D01*
X336611Y212593D01*
X336701Y212376D01*
X336753Y212148D01*
X336811Y212037D01*
Y212000D01*
X336937Y210726D01*
X337308Y209501D01*
X337912Y208371D01*
X338724Y207382D01*
X339714Y206569D01*
X340843Y205966D01*
X342068Y205594D01*
X343343Y205469D01*
X344617Y205594D01*
X345842Y205966D01*
X346971Y206569D01*
X347961Y207382D01*
X348773Y208371D01*
X349377Y209501D01*
X349748Y210726D01*
X349874Y212000D01*
Y212037D01*
X349933Y212148D01*
X349985Y212376D01*
X350074Y212593D01*
X350130Y213016D01*
X350224Y213432D01*
X350215Y213666D01*
X350246Y213898D01*
X350190Y214321D01*
X350174Y214747D01*
X350105Y214971D01*
X350074Y215203D01*
X349911Y215597D01*
X349890Y215664D01*
X349887Y215706D01*
X349885Y215850D01*
X349874Y215928D01*
Y222137D01*
X356382Y228645D01*
X356881Y228612D01*
X356981Y228481D01*
X358026Y227680D01*
X359242Y227176D01*
X360547Y227004D01*
X366453D01*
X367758Y227176D01*
X368974Y227680D01*
X370019Y228481D01*
X370820Y229526D01*
X371324Y230742D01*
X371496Y232047D01*
Y235151D01*
X371923Y235577D01*
X372804Y236726D01*
X373358Y238064D01*
X373548Y239500D01*
Y285700D01*
X373358Y287136D01*
X372804Y288474D01*
X371923Y289623D01*
X371923Y289623D01*
X367923Y293623D01*
X366774Y294504D01*
X365436Y295058D01*
X364000Y295248D01*
X293134D01*
X292837Y295649D01*
X293047Y296341D01*
X293195Y297843D01*
X293047Y299344D01*
X292609Y300787D01*
X291898Y302117D01*
X290941Y303283D01*
X289775Y304240D01*
X288445Y304951D01*
X287001Y305389D01*
X285500Y305537D01*
D02*
G37*
G36*
X213657Y306543D02*
X208343D01*
X207037Y306371D01*
X205821Y305868D01*
X204777Y305066D01*
X203975Y304022D01*
X203471Y302805D01*
X203299Y301500D01*
Y296185D01*
X203471Y294880D01*
X203975Y293664D01*
X204777Y292619D01*
X205821Y291818D01*
X207037Y291314D01*
X208343Y291142D01*
X213657D01*
X214963Y291314D01*
X216179Y291818D01*
X217224Y292619D01*
X218025Y293664D01*
X218529Y294880D01*
X218701Y296185D01*
Y301500D01*
X218529Y302805D01*
X218025Y304022D01*
X217224Y305066D01*
X216179Y305868D01*
X214963Y306371D01*
X213657Y306543D01*
D02*
G37*
G36*
X288158Y281835D02*
X286000D01*
Y278657D01*
X289177D01*
Y280815D01*
X289100Y281205D01*
X288878Y281536D01*
X288548Y281757D01*
X288158Y281835D01*
D02*
G37*
%LPD*%
G36*
X216547Y261272D02*
Y258051D01*
X216349Y257793D01*
X215845Y256577D01*
X215673Y255272D01*
Y251728D01*
X215845Y250423D01*
X216349Y249207D01*
X217047Y248297D01*
Y240051D01*
X216849Y239793D01*
X216345Y238577D01*
X216173Y237272D01*
Y233728D01*
X216345Y232423D01*
X216849Y231207D01*
X217650Y230162D01*
X218695Y229361D01*
X219911Y228857D01*
X220000Y228845D01*
Y222227D01*
X219364Y222143D01*
X218148Y221639D01*
X217103Y220838D01*
X216302Y219793D01*
X215798Y218577D01*
X215662Y217547D01*
X206496D01*
Y217953D01*
X206324Y219258D01*
X205820Y220474D01*
X205019Y221519D01*
X204318Y222057D01*
X204384Y222164D01*
X204824Y223366D01*
X204985Y224399D01*
X205119Y224677D01*
X205365Y225115D01*
X205404Y225268D01*
X205472Y225411D01*
X205566Y225904D01*
X205690Y226391D01*
X205688Y226549D01*
X205718Y226704D01*
X205680Y227205D01*
X205674Y227707D01*
X205631Y227859D01*
X205620Y228017D01*
X205454Y228491D01*
X205318Y228975D01*
X205279Y229040D01*
X205274Y229102D01*
X206021Y242332D01*
X206013Y242516D01*
X206031Y242700D01*
Y252371D01*
X206500Y252513D01*
X207629Y253116D01*
X208618Y253929D01*
X215618Y260929D01*
X216047Y261451D01*
X216547Y261272D01*
D02*
G37*
G36*
X315905Y224503D02*
X315820Y224473D01*
X315745Y224423D01*
X315680Y224353D01*
X315625Y224263D01*
X315580Y224153D01*
X315545Y224023D01*
X315520Y223873D01*
X315505Y223703D01*
X315500Y223513D01*
X314500D01*
X314495Y223703D01*
X314480Y223873D01*
X314455Y224023D01*
X314420Y224153D01*
X314375Y224263D01*
X314320Y224353D01*
X314255Y224423D01*
X314180Y224473D01*
X314095Y224503D01*
X314000Y224513D01*
X316000D01*
X315905Y224503D01*
D02*
G37*
G36*
X200241Y229223D02*
X200229Y228905D01*
X200242Y228330D01*
X200267Y228075D01*
X200305Y227841D01*
X200355Y227628D01*
X200418Y227436D01*
X200494Y227266D01*
X200582Y227117D01*
X200683Y226989D01*
X196555Y227222D01*
X196670Y227338D01*
X196774Y227476D01*
X196868Y227637D01*
X196952Y227820D01*
X197027Y228026D01*
X197091Y228254D01*
X197144Y228505D01*
X197188Y228779D01*
X197246Y229393D01*
X200241Y229223D01*
D02*
G37*
G36*
X312562Y230310D02*
X312931Y229996D01*
X313094Y229882D01*
X313242Y229796D01*
X313377Y229738D01*
X313496Y229709D01*
X313602Y229707D01*
X313693Y229734D01*
X313770Y229790D01*
X312368Y228388D01*
X312423Y228464D01*
X312450Y228555D01*
X312449Y228661D01*
X312419Y228781D01*
X312362Y228915D01*
X312276Y229064D01*
X312161Y229227D01*
X312018Y229404D01*
X311648Y229802D01*
X312355Y230509D01*
X312562Y230310D01*
D02*
G37*
G36*
X367147Y237940D02*
X366948Y237734D01*
X366634Y237365D01*
X366520Y237201D01*
X366434Y237053D01*
X366376Y236919D01*
X366347Y236799D01*
X366345Y236693D01*
X366372Y236602D01*
X366428Y236526D01*
X365026Y237928D01*
X365102Y237872D01*
X365193Y237845D01*
X365299Y237846D01*
X365419Y237876D01*
X365553Y237934D01*
X365702Y238020D01*
X365864Y238134D01*
X366042Y238277D01*
X366440Y238647D01*
X367147Y237940D01*
D02*
G37*
G36*
X223099Y238066D02*
X223114Y237894D01*
X223139Y237742D01*
X223174Y237611D01*
X223219Y237500D01*
X223274Y237409D01*
X223339Y237338D01*
X223414Y237287D01*
X223499Y237257D01*
X223594Y237247D01*
X221594D01*
X221689Y237257D01*
X221774Y237287D01*
X221849Y237338D01*
X221914Y237409D01*
X221969Y237500D01*
X222014Y237611D01*
X222049Y237742D01*
X222074Y237894D01*
X222089Y238066D01*
X222094Y238259D01*
X223094D01*
X223099Y238066D01*
D02*
G37*
G36*
X229405Y233731D02*
X229320Y233701D01*
X229245Y233651D01*
X229180Y233581D01*
X229125Y233491D01*
X229080Y233381D01*
X229045Y233251D01*
X229020Y233101D01*
X229005Y232931D01*
X229000Y232741D01*
X228000D01*
X227995Y232931D01*
X227980Y233101D01*
X227955Y233251D01*
X227920Y233381D01*
X227875Y233491D01*
X227820Y233581D01*
X227755Y233651D01*
X227680Y233701D01*
X227595Y233731D01*
X227500Y233741D01*
X229500D01*
X229405Y233731D01*
D02*
G37*
G36*
X228592Y218065D02*
X228598Y217894D01*
X228615Y217742D01*
X228643Y217611D01*
X228682Y217499D01*
X228733Y217408D01*
X228794Y217338D01*
X228867Y217287D01*
X228951Y217257D01*
X229045Y217247D01*
X227043D01*
X227138Y217257D01*
X227225Y217287D01*
X227302Y217338D01*
X227371Y217408D01*
X227431Y217499D01*
X227482Y217611D01*
X227523Y217742D01*
X227556Y217894D01*
X227580Y218065D01*
X227595Y218257D01*
X228596D01*
X228592Y218065D01*
D02*
G37*
G36*
X228648Y213734D02*
X228607Y213712D01*
X228571Y213675D01*
X228540Y213623D01*
X228513Y213556D01*
X228491Y213474D01*
X228474Y213378D01*
X228462Y213267D01*
X228453Y213000D01*
X227453D01*
X227450Y213141D01*
X227431Y213378D01*
X227414Y213474D01*
X227393Y213556D01*
X227366Y213623D01*
X227334Y213675D01*
X227298Y213712D01*
X227257Y213734D01*
X227211Y213741D01*
X228694D01*
X228648Y213734D01*
D02*
G37*
G36*
X281470Y211547D02*
X281046Y211544D01*
X280286Y211493D01*
X279949Y211444D01*
X279642Y211381D01*
X279363Y211302D01*
X279115Y211208D01*
X278895Y211099D01*
X278704Y210975D01*
X278543Y210836D01*
X277836Y211543D01*
X277975Y211704D01*
X278099Y211895D01*
X278208Y212115D01*
X278302Y212364D01*
X278380Y212642D01*
X278444Y212949D01*
X278493Y213285D01*
X278544Y214046D01*
X278547Y214471D01*
X281470Y211547D01*
D02*
G37*
G36*
X259697Y222958D02*
X259506Y222496D01*
X258547D01*
X257242Y222324D01*
X256026Y221820D01*
X254981Y221019D01*
X254180Y219974D01*
X253676Y218758D01*
X253504Y217453D01*
Y211547D01*
X253676Y210242D01*
X253998Y209463D01*
X253721Y209048D01*
X232483D01*
X232236Y209547D01*
X232438Y209810D01*
X232897Y210162D01*
X233698Y211207D01*
X234202Y212423D01*
X234374Y213728D01*
Y217272D01*
X234202Y218577D01*
X233727Y219724D01*
X234040Y225760D01*
X234029Y225904D01*
X234048Y226047D01*
Y230949D01*
X234245Y231207D01*
X234749Y232423D01*
X234921Y233728D01*
Y234253D01*
X248402D01*
X259697Y222958D01*
D02*
G37*
G36*
X321219Y215152D02*
X321588Y214839D01*
X321751Y214724D01*
X321900Y214638D01*
X322034Y214581D01*
X322154Y214551D01*
X322259Y214550D01*
X322350Y214577D01*
X322427Y214633D01*
X321025Y213230D01*
X321080Y213307D01*
X321107Y213398D01*
X321106Y213504D01*
X321077Y213623D01*
X321019Y213758D01*
X320933Y213906D01*
X320818Y214069D01*
X320676Y214247D01*
X320306Y214645D01*
X321013Y215352D01*
X321219Y215152D01*
D02*
G37*
G36*
X224119Y217165D02*
X223924Y216963D01*
X223616Y216599D01*
X223503Y216438D01*
X223418Y216290D01*
X223359Y216155D01*
X223329Y216034D01*
X223325Y215926D01*
X223349Y215832D01*
X223400Y215751D01*
X222092Y217247D01*
X222164Y217187D01*
X222252Y217157D01*
X222355Y217156D01*
X222474Y217184D01*
X222607Y217241D01*
X222756Y217328D01*
X222921Y217443D01*
X223100Y217588D01*
X223506Y217966D01*
X224119Y217165D01*
D02*
G37*
G36*
X344846Y215493D02*
X344900Y214748D01*
X344933Y214547D01*
X344972Y214370D01*
X345019Y214216D01*
X345073Y214086D01*
X345134Y213980D01*
X345203Y213898D01*
X341482D01*
X341551Y213980D01*
X341612Y214086D01*
X341666Y214216D01*
X341713Y214370D01*
X341753Y214547D01*
X341785Y214748D01*
X341828Y215221D01*
X341843Y215788D01*
X344843D01*
X344846Y215493D01*
D02*
G37*
G36*
X268617Y213861D02*
X268605Y213888D01*
X268583Y213911D01*
X268549Y213932D01*
X268504Y213950D01*
X268447Y213965D01*
X268380Y213978D01*
X268302Y213987D01*
X268112Y213999D01*
X268000Y214000D01*
Y215000D01*
X268112Y215001D01*
X268380Y215022D01*
X268447Y215035D01*
X268504Y215050D01*
X268549Y215068D01*
X268583Y215089D01*
X268605Y215112D01*
X268617Y215139D01*
Y213861D01*
D02*
G37*
G36*
X226057Y241110D02*
X226087Y240940D01*
X226137Y240790D01*
X226207Y240660D01*
X226297Y240550D01*
X226407Y240460D01*
X226537Y240390D01*
X226687Y240340D01*
X226857Y240310D01*
X227047Y240300D01*
Y239300D01*
X226857Y239290D01*
X226687Y239260D01*
X226537Y239210D01*
X226407Y239140D01*
X226297Y239050D01*
X226207Y238940D01*
X226137Y238810D01*
X226087Y238660D01*
X226057Y238490D01*
X226047Y238300D01*
X225047Y239800D01*
X226047Y241300D01*
X226057Y241110D01*
D02*
G37*
G36*
X326469Y274193D02*
Y268048D01*
X323410Y264989D01*
X323369Y264960D01*
X322519Y264170D01*
X322165Y264124D01*
X321767Y264113D01*
X321515Y264038D01*
X321254Y264004D01*
X320886Y263851D01*
X320505Y263738D01*
X320281Y263601D01*
X320038Y263500D01*
X319722Y263258D01*
X319383Y263050D01*
X319202Y262859D01*
X318993Y262699D01*
X318751Y262383D01*
X318477Y262094D01*
X318352Y261863D01*
X318192Y261654D01*
X318039Y261286D01*
X317962Y261143D01*
X317849Y261010D01*
X317554Y260722D01*
X317427Y260509D01*
X317267Y260319D01*
X317091Y259946D01*
X316880Y259591D01*
X316847Y259475D01*
X316348Y259544D01*
Y268002D01*
X322849Y274504D01*
X325953D01*
X326093Y274522D01*
X326469Y274193D01*
D02*
G37*
G36*
X197753Y263453D02*
X197743Y263548D01*
X197713Y263633D01*
X197662Y263708D01*
X197591Y263773D01*
X197500Y263828D01*
X197389Y263873D01*
X197257Y263908D01*
X197106Y263933D01*
X196934Y263948D01*
X196741Y263953D01*
Y264953D01*
X196934Y264958D01*
X197106Y264973D01*
X197257Y264998D01*
X197389Y265033D01*
X197500Y265078D01*
X197591Y265133D01*
X197662Y265198D01*
X197713Y265273D01*
X197743Y265358D01*
X197753Y265453D01*
Y263453D01*
D02*
G37*
G36*
X344356Y260506D02*
X344397Y260301D01*
X344465Y260088D01*
X344560Y259868D01*
X344683Y259641D01*
X344832Y259407D01*
X345009Y259165D01*
X345213Y258917D01*
X345703Y258398D01*
X341982D01*
X342241Y258661D01*
X342676Y259165D01*
X342853Y259407D01*
X343003Y259641D01*
X343125Y259868D01*
X343220Y260088D01*
X343288Y260301D01*
X343329Y260506D01*
X343343Y260704D01*
X344343D01*
X344356Y260506D01*
D02*
G37*
G36*
X328923Y259144D02*
X328328Y258528D01*
X327392Y257424D01*
X327052Y256935D01*
X326796Y256490D01*
X326625Y256087D01*
X326539Y255727D01*
X326538Y255409D01*
X326621Y255134D01*
X326790Y254902D01*
X322559Y259133D01*
X322792Y258964D01*
X323066Y258880D01*
X323384Y258881D01*
X323744Y258968D01*
X324147Y259138D01*
X324593Y259394D01*
X325081Y259735D01*
X325612Y260160D01*
X326802Y261266D01*
X328923Y259144D01*
D02*
G37*
G36*
X334959Y280269D02*
X334863Y280125D01*
X334778Y279959D01*
X334704Y279772D01*
X334642Y279562D01*
X334591Y279330D01*
X334551Y279077D01*
X334523Y278801D01*
X334500Y278185D01*
X331500D01*
X331494Y278504D01*
X331449Y279077D01*
X331409Y279330D01*
X331358Y279562D01*
X331296Y279772D01*
X331222Y279959D01*
X331137Y280125D01*
X331041Y280269D01*
X330933Y280391D01*
X335067D01*
X334959Y280269D01*
D02*
G37*
G36*
X321474Y279560D02*
X321397Y279617D01*
X321305Y279645D01*
X321199D01*
X321078Y279617D01*
X320944Y279560D01*
X320796Y279475D01*
X320633Y279362D01*
X320456Y279221D01*
X320060Y278853D01*
X319353Y279560D01*
X319551Y279765D01*
X319862Y280133D01*
X319975Y280296D01*
X320060Y280444D01*
X320117Y280578D01*
X320145Y280699D01*
Y280805D01*
X320117Y280897D01*
X320060Y280974D01*
X321474Y279560D01*
D02*
G37*
G36*
X212792Y277177D02*
X212731Y277071D01*
X212677Y276941D01*
X212630Y276788D01*
X212590Y276610D01*
X212558Y276410D01*
X212514Y275937D01*
X212500Y275369D01*
X209500D01*
X209496Y275665D01*
X209442Y276410D01*
X209410Y276610D01*
X209370Y276788D01*
X209324Y276941D01*
X209269Y277071D01*
X209208Y277177D01*
X209140Y277260D01*
X212860D01*
X212792Y277177D01*
D02*
G37*
G36*
X344769Y280089D02*
X344268Y279515D01*
X344064Y279242D01*
X343892Y278980D01*
X343751Y278728D01*
X343641Y278485D01*
X343563Y278253D01*
X343516Y278031D01*
X343500Y277818D01*
X342500D01*
X342484Y278031D01*
X342437Y278253D01*
X342359Y278485D01*
X342249Y278728D01*
X342108Y278980D01*
X341936Y279242D01*
X341732Y279515D01*
X341231Y280089D01*
X340933Y280391D01*
X345067D01*
X344769Y280089D01*
D02*
G37*
G36*
X258011Y251653D02*
X257060Y251145D01*
X255849Y250151D01*
X254855Y248940D01*
X254117Y247558D01*
X253662Y246059D01*
X253569Y245106D01*
X253034Y244786D01*
X252136Y245158D01*
X250700Y245347D01*
X233794D01*
X233402Y245848D01*
X233547Y246953D01*
Y248949D01*
X233745Y249207D01*
X234249Y250423D01*
X234421Y251728D01*
Y252152D01*
X257886D01*
X258011Y251653D01*
D02*
G37*
G36*
X318739Y248461D02*
X318533Y248249D01*
X318044Y247684D01*
X317925Y247519D01*
X317828Y247366D01*
X317753Y247224D01*
X317699Y247094D01*
X317667Y246976D01*
X317657Y246869D01*
X315027Y249500D01*
X315133Y249510D01*
X315252Y249542D01*
X315382Y249595D01*
X315523Y249671D01*
X315677Y249768D01*
X315842Y249887D01*
X316207Y250191D01*
X316618Y250582D01*
X318739Y248461D01*
D02*
G37*
G36*
X363471Y242047D02*
X363308Y242037D01*
X363138Y242004D01*
X362961Y241946D01*
X362776Y241866D01*
X362583Y241761D01*
X362384Y241634D01*
X362176Y241483D01*
X361961Y241308D01*
X361509Y240888D01*
X359388Y243009D01*
X359610Y243239D01*
X359983Y243676D01*
X360134Y243883D01*
X360262Y244083D01*
X360366Y244276D01*
X360446Y244461D01*
X360504Y244638D01*
X360537Y244808D01*
X360547Y244970D01*
X363471Y242047D01*
D02*
G37*
G36*
X278704Y248025D02*
X278895Y247901D01*
X279115Y247792D01*
X279363Y247698D01*
X279642Y247620D01*
X279949Y247556D01*
X280286Y247507D01*
X281046Y247456D01*
X281470Y247453D01*
X278547Y244530D01*
X278544Y244954D01*
X278493Y245714D01*
X278444Y246051D01*
X278380Y246358D01*
X278302Y246637D01*
X278208Y246885D01*
X278099Y247105D01*
X277975Y247296D01*
X277836Y247457D01*
X278543Y248164D01*
X278704Y248025D01*
D02*
G37*
G36*
X201209Y257152D02*
X201166Y257062D01*
X201127Y256912D01*
X201093Y256702D01*
X201065Y256432D01*
X201010Y255262D01*
X201000Y254182D01*
X198000D01*
X197997Y254752D01*
X197873Y256912D01*
X197835Y257062D01*
X197791Y257152D01*
X197741Y257182D01*
X201259D01*
X201209Y257152D01*
D02*
G37*
G36*
X222599Y256066D02*
X222614Y255894D01*
X222639Y255743D01*
X222674Y255611D01*
X222719Y255500D01*
X222774Y255409D01*
X222839Y255338D01*
X222914Y255287D01*
X222999Y255257D01*
X223094Y255247D01*
X221094D01*
X221189Y255257D01*
X221274Y255287D01*
X221349Y255338D01*
X221414Y255409D01*
X221469Y255500D01*
X221514Y255611D01*
X221549Y255743D01*
X221574Y255894D01*
X221589Y256066D01*
X221594Y256259D01*
X222594D01*
X222599Y256066D01*
D02*
G37*
G36*
X228905Y251731D02*
X228820Y251701D01*
X228745Y251651D01*
X228680Y251581D01*
X228625Y251491D01*
X228580Y251381D01*
X228545Y251251D01*
X228520Y251101D01*
X228505Y250931D01*
X228500Y250741D01*
X227500D01*
X227495Y250931D01*
X227480Y251101D01*
X227455Y251251D01*
X227420Y251381D01*
X227375Y251491D01*
X227320Y251581D01*
X227255Y251651D01*
X227180Y251701D01*
X227095Y251731D01*
X227000Y251741D01*
X229000D01*
X228905Y251731D01*
D02*
G37*
G36*
X326255Y253855D02*
X326000Y254003D01*
X325706Y254070D01*
X325376Y254058D01*
X325008Y253965D01*
X324602Y253793D01*
X324159Y253541D01*
X323679Y253209D01*
X323161Y252797D01*
X322606Y252306D01*
X322013Y251734D01*
X319392Y253356D01*
X320008Y253993D01*
X320971Y255126D01*
X321318Y255622D01*
X321575Y256070D01*
X321743Y256470D01*
X321820Y256823D01*
X321808Y257129D01*
X321705Y257387D01*
X321513Y257598D01*
X326255Y253855D01*
D02*
G37*
D10*
X228500Y235500D02*
D03*
X222594D02*
D03*
X228000Y253500D02*
D03*
X222094D02*
D03*
X227953Y215500D02*
D03*
X222047D02*
D03*
D11*
X199500Y264453D02*
D03*
Y258547D02*
D03*
D12*
X343843Y256500D02*
Y269000D01*
X343000Y269843D02*
X343843Y269000D01*
X343000Y269843D02*
Y282500D01*
X310800Y231357D02*
X315000Y227157D01*
X310800Y231357D02*
Y270300D01*
X323000Y282500D01*
X227953Y213000D02*
Y215500D01*
X226953Y212000D02*
X227953Y213000D01*
X201500Y212000D02*
X226953D01*
X198500Y215000D02*
X201500Y212000D01*
X363500Y235000D02*
X368000Y239500D01*
Y285700D01*
X364000Y289700D02*
X368000Y285700D01*
X249100Y289700D02*
X364000D01*
X222094Y262694D02*
X249100Y289700D01*
X222094Y253500D02*
Y262694D01*
X222594Y235500D02*
Y248400D01*
X225100Y250906D01*
Y256000D01*
X226800Y257700D01*
X268300D01*
X281500Y244500D01*
X225547D02*
X228000Y246953D01*
Y253500D01*
X270500Y203500D02*
X281500Y214500D01*
X198500Y203500D02*
X270500D01*
X194000Y208000D02*
X198500Y203500D01*
X194000Y208000D02*
Y262453D01*
X196000Y264453D01*
X199500D01*
X227953Y215500D02*
X228500Y226047D01*
Y235500D01*
X222047Y215500D02*
Y215800D01*
X225547Y219300D01*
Y239800D01*
X250700D01*
X266500Y224000D01*
Y216000D02*
Y224000D01*
Y216000D02*
X268000Y214500D01*
X271500D01*
X315000Y220657D02*
X323657Y212000D01*
X315000Y220657D02*
Y227157D01*
X225547Y239800D02*
Y244500D01*
D13*
X343343Y212000D02*
Y224843D01*
X363500Y245000D01*
X211000Y265547D02*
Y279157D01*
X204000Y258547D02*
X211000Y265547D01*
X199500Y258547D02*
X204000D01*
X198500Y225000D02*
X199500Y242700D01*
Y258547D01*
X315000Y246843D02*
X324157Y256000D01*
Y256500D01*
X333000Y265343D01*
Y282500D01*
D14*
X386428Y188999D02*
Y186000D01*
X386571Y188999D02*
Y186000D01*
X386000Y188999D02*
X387714D01*
X388142Y188856D01*
X388285Y188714D01*
X388428Y188428D01*
Y188142D01*
X388285Y187857D01*
X388142Y187714D01*
X387714Y187571D01*
Y188999D02*
X388000Y188856D01*
X388142Y188714D01*
X388285Y188428D01*
Y188142D01*
X388142Y187857D01*
X388000Y187714D01*
X387714Y187571D01*
X386571D02*
X387714D01*
X388142Y187428D01*
X388285Y187285D01*
X388428Y187000D01*
Y186571D01*
X388285Y186286D01*
X388142Y186143D01*
X387714Y186000D01*
X386000D01*
X387714Y187571D02*
X388000Y187428D01*
X388142Y187285D01*
X388285Y187000D01*
Y186571D01*
X388142Y186286D01*
X388000Y186143D01*
X387714Y186000D01*
X388971Y186286D02*
X388828Y186143D01*
X388971Y186000D01*
X389114Y186143D01*
X388971Y186286D01*
X391013Y188999D02*
X390013Y186000D01*
X391013Y188999D02*
X392013Y186000D01*
X391013Y188571D02*
X391870Y186000D01*
X390299Y186857D02*
X391584D01*
X389728Y186000D02*
X390585D01*
X391442D02*
X392299D01*
X392827Y186286D02*
X392684Y186143D01*
X392827Y186000D01*
X392970Y186143D01*
X392827Y186286D01*
X396712Y188999D02*
Y186000D01*
X396855Y188999D02*
Y186000D01*
X396284Y188999D02*
X397997D01*
X398426Y188856D01*
X398569Y188714D01*
X398712Y188428D01*
Y188142D01*
X398569Y187857D01*
X398426Y187714D01*
X397997Y187571D01*
X396855D01*
X397997Y188999D02*
X398283Y188856D01*
X398426Y188714D01*
X398569Y188428D01*
Y188142D01*
X398426Y187857D01*
X398283Y187714D01*
X397997Y187571D01*
X396284Y186000D02*
X397283D01*
X397569Y187571D02*
X397855Y187428D01*
X397997Y187285D01*
X398426Y186286D01*
X398569Y186143D01*
X398712D01*
X398854Y186286D01*
X397855Y187428D02*
X397997Y187143D01*
X398283Y186143D01*
X398426Y186000D01*
X398712D01*
X398854Y186286D01*
Y186428D01*
X399669Y188999D02*
Y186000D01*
X399811Y188999D02*
Y186000D01*
X400668Y188142D02*
Y187000D01*
X399240Y188999D02*
X401525D01*
Y188142D01*
X401382Y188999D01*
X399811Y187571D02*
X400668D01*
X399240Y186000D02*
X401525D01*
Y186857D01*
X401382Y186000D01*
X402225Y188999D02*
X403225Y186000D01*
X402368Y188999D02*
X403225Y186428D01*
X404225Y188999D02*
X403225Y186000D01*
X401939Y188999D02*
X402796D01*
X403653D02*
X404510D01*
X404896Y188428D02*
X405182Y188571D01*
X405610Y188999D01*
Y186000D01*
X405467Y188856D02*
Y186000D01*
X404896D02*
X406181D01*
X406838Y186286D02*
X406696Y186143D01*
X406838Y186000D01*
X406981Y186143D01*
X406838Y186286D01*
X408452Y188999D02*
X408024Y188856D01*
X407738Y188428D01*
X407595Y187714D01*
Y187285D01*
X407738Y186571D01*
X408024Y186143D01*
X408452Y186000D01*
X408738D01*
X409166Y186143D01*
X409452Y186571D01*
X409595Y187285D01*
Y187714D01*
X409452Y188428D01*
X409166Y188856D01*
X408738Y188999D01*
X408452D01*
X408167Y188856D01*
X408024Y188714D01*
X407881Y188428D01*
X407738Y187714D01*
Y187285D01*
X407881Y186571D01*
X408024Y186286D01*
X408167Y186143D01*
X408452Y186000D01*
X408738D02*
X409024Y186143D01*
X409166Y186286D01*
X409309Y186571D01*
X409452Y187285D01*
Y187714D01*
X409309Y188428D01*
X409166Y188714D01*
X409024Y188856D01*
X408738Y188999D01*
D15*
X363500Y235000D02*
D03*
X261500Y214500D02*
D03*
X198500Y215000D02*
D03*
D16*
X363500Y245000D02*
D03*
X291500Y244500D02*
D03*
X281500D02*
D03*
X271500D02*
D03*
X261500D02*
D03*
X291500Y214500D02*
D03*
X281500D02*
D03*
X271500D02*
D03*
X343000Y282500D02*
D03*
X333000D02*
D03*
X198500Y225000D02*
D03*
D17*
X211000Y298843D02*
D03*
X315000Y227157D02*
D03*
X246000Y278157D02*
D03*
X285500D02*
D03*
D18*
X211000Y279157D02*
D03*
X343843Y256500D02*
D03*
X343343Y212000D02*
D03*
X315000Y246843D02*
D03*
X246000Y297843D02*
D03*
X285500D02*
D03*
D19*
X323000Y282500D02*
D03*
D20*
X324157Y256500D02*
D03*
X323657Y212000D02*
D03*
M02*
