G04 Layer_Color=65535*
%FSLAX25Y25*%
%MOIN*%
G70*
G01*
G75*
%ADD12C,0.01000*%
%ADD21C,0.02362*%
%ADD22C,0.00984*%
%ADD23C,0.00787*%
D12*
X333499Y227498D02*
X332499Y228498D01*
X330500D01*
X329500Y227498D01*
Y223500D01*
X330500Y222500D01*
X332499D01*
X333499Y223500D01*
X335498Y222500D02*
X337497D01*
X336498D01*
Y228498D01*
X335498Y227498D01*
X284999Y307998D02*
X283999Y308998D01*
X282000D01*
X281000Y307998D01*
Y304000D01*
X282000Y303000D01*
X283999D01*
X284999Y304000D01*
X290997Y303000D02*
X286998D01*
X290997Y306999D01*
Y307998D01*
X289997Y308998D01*
X287998D01*
X286998Y307998D01*
X244499Y308498D02*
X243499Y309498D01*
X241500D01*
X240500Y308498D01*
Y304500D01*
X241500Y303500D01*
X243499D01*
X244499Y304500D01*
X246498Y308498D02*
X247498Y309498D01*
X249497D01*
X250497Y308498D01*
Y307499D01*
X249497Y306499D01*
X248497D01*
X249497D01*
X250497Y305499D01*
Y304500D01*
X249497Y303500D01*
X247498D01*
X246498Y304500D01*
X332999Y271998D02*
X331999Y272998D01*
X330000D01*
X329000Y271998D01*
Y268000D01*
X330000Y267000D01*
X331999D01*
X332999Y268000D01*
X337997Y267000D02*
Y272998D01*
X334998Y269999D01*
X338997D01*
X314499Y255998D02*
X313499Y256998D01*
X311500D01*
X310500Y255998D01*
Y252000D01*
X311500Y251000D01*
X313499D01*
X314499Y252000D01*
X320497Y256998D02*
X316498D01*
Y253999D01*
X318497Y254999D01*
X319497D01*
X320497Y253999D01*
Y252000D01*
X319497Y251000D01*
X317498D01*
X316498Y252000D01*
X207699Y309898D02*
X206699Y310898D01*
X204700D01*
X203700Y309898D01*
Y305900D01*
X204700Y304900D01*
X206699D01*
X207699Y305900D01*
X213697Y310898D02*
X211697Y309898D01*
X209698Y307899D01*
Y305900D01*
X210698Y304900D01*
X212697D01*
X213697Y305900D01*
Y306899D01*
X212697Y307899D01*
X209698D01*
X319500Y290900D02*
Y296898D01*
X322499D01*
X323499Y295898D01*
Y293899D01*
X322499Y292899D01*
X319500D01*
X326498Y290900D02*
X328497D01*
X329497Y291900D01*
Y293899D01*
X328497Y294899D01*
X326498D01*
X325498Y293899D01*
Y291900D01*
X326498Y290900D01*
X331496Y294899D02*
Y291900D01*
X332496Y290900D01*
X333495Y291900D01*
X334495Y290900D01*
X335495Y291900D01*
Y294899D01*
X340493Y290900D02*
X338494D01*
X337494Y291900D01*
Y293899D01*
X338494Y294899D01*
X340493D01*
X341493Y293899D01*
Y292899D01*
X337494D01*
X343492Y294899D02*
Y290900D01*
Y292899D01*
X344492Y293899D01*
X345492Y294899D01*
X346491D01*
X351400Y279500D02*
Y285498D01*
X354399D01*
X355399Y284498D01*
Y282499D01*
X354399Y281499D01*
X351400D01*
X357398Y279500D02*
X359397D01*
X358398D01*
Y285498D01*
X357398Y284498D01*
X361100Y226598D02*
X363099D01*
X362100D01*
Y220600D01*
X361100D01*
X363099D01*
X366098D02*
Y224599D01*
X369097D01*
X370097Y223599D01*
Y220600D01*
X372096Y218601D02*
Y224599D01*
X375096D01*
X376095Y223599D01*
Y221600D01*
X375096Y220600D01*
X372096D01*
X378095Y224599D02*
Y221600D01*
X379094Y220600D01*
X382093D01*
Y224599D01*
X385092Y225598D02*
Y224599D01*
X384093D01*
X386092D01*
X385092D01*
Y221600D01*
X386092Y220600D01*
X361100Y253400D02*
Y259398D01*
X364099D01*
X365099Y258398D01*
Y256399D01*
X364099Y255399D01*
X361100D01*
X371097Y253400D02*
X367098D01*
X371097Y257399D01*
Y258398D01*
X370097Y259398D01*
X368098D01*
X367098Y258398D01*
X184002Y213499D02*
Y211500D01*
X185002Y210500D01*
X189000D01*
X190000Y211500D01*
Y213499D01*
X189000Y214499D01*
X185002D01*
X184002Y213499D01*
X186001Y216498D02*
X189000D01*
X190000Y217498D01*
Y220497D01*
X186001D01*
X185002Y223496D02*
X186001D01*
Y222496D01*
Y224496D01*
Y223496D01*
X189000D01*
X190000Y224496D01*
X191999Y227495D02*
X186001D01*
Y230493D01*
X187001Y231493D01*
X189000D01*
X190000Y230493D01*
Y227495D01*
X186001Y233493D02*
X189000D01*
X190000Y234492D01*
Y237491D01*
X186001D01*
X185002Y240490D02*
X186001D01*
Y239491D01*
Y241490D01*
Y240490D01*
X189000D01*
X190000Y241490D01*
X194100Y233400D02*
Y239398D01*
X197099D01*
X198099Y238398D01*
Y236399D01*
X197099Y235399D01*
X194100D01*
X200098Y238398D02*
X201098Y239398D01*
X203097D01*
X204097Y238398D01*
Y237399D01*
X203097Y236399D01*
X202097D01*
X203097D01*
X204097Y235399D01*
Y234400D01*
X203097Y233400D01*
X201098D01*
X200098Y234400D01*
X221050Y220850D02*
Y226848D01*
X224049D01*
X225049Y225848D01*
Y223849D01*
X224049Y222849D01*
X221050D01*
X223049D02*
X225049Y220850D01*
X227048D02*
X229047D01*
X228048D01*
Y226848D01*
X227048Y225848D01*
X221097Y258850D02*
Y264848D01*
X224096D01*
X225096Y263848D01*
Y261849D01*
X224096Y260849D01*
X221097D01*
X223097D02*
X225096Y258850D01*
X231094D02*
X227095D01*
X231094Y262849D01*
Y263848D01*
X230094Y264848D01*
X228095D01*
X227095Y263848D01*
X221597Y240850D02*
Y246848D01*
X224596D01*
X225596Y245848D01*
Y243849D01*
X224596Y242849D01*
X221597D01*
X223597D02*
X225596Y240850D01*
X227595Y245848D02*
X228595Y246848D01*
X230594D01*
X231594Y245848D01*
Y244849D01*
X230594Y243849D01*
X229595D01*
X230594D01*
X231594Y242849D01*
Y241850D01*
X230594Y240850D01*
X228595D01*
X227595Y241850D01*
X184100Y258453D02*
Y264451D01*
X187099D01*
X188099Y263451D01*
Y261452D01*
X187099Y260452D01*
X184100D01*
X186099D02*
X188099Y258453D01*
X193097D02*
Y264451D01*
X190098Y261452D01*
X194097D01*
X256400Y256898D02*
Y251900D01*
X257400Y250900D01*
X259399D01*
X260399Y251900D01*
Y256898D01*
X262398Y250900D02*
X264397D01*
X263398D01*
Y256898D01*
X262398Y255898D01*
D21*
X261343Y223004D02*
G03*
X261343Y223004I-1181J0D01*
G01*
D22*
X256874Y214500D02*
G03*
X256874Y214500I-492J0D01*
G01*
D23*
X256224Y227000D02*
G03*
X256224Y232000I0J2500D01*
G01*
X206768Y295640D02*
G03*
X207726Y281839I4232J-6640D01*
G01*
X214274D02*
G03*
X215232Y295640I-3274J7161D01*
G01*
X327360Y252268D02*
G03*
X341161Y253226I6640J4232D01*
G01*
Y259774D02*
G03*
X327360Y260732I-7161J-3274D01*
G01*
X326860Y207768D02*
G03*
X340661Y208726I6640J4232D01*
G01*
Y215274D02*
G03*
X326860Y216232I-7161J-3274D01*
G01*
X319232Y230360D02*
G03*
X318274Y244161I-4232J6640D01*
G01*
X311726D02*
G03*
X310768Y230360I3274J-7161D01*
G01*
X250232Y281360D02*
G03*
X249274Y295161I-4232J6640D01*
G01*
X242726D02*
G03*
X241768Y281360I3274J-7161D01*
G01*
X289732D02*
G03*
X288774Y295161I-4232J6640D01*
G01*
X282226D02*
G03*
X281268Y281360I3274J-7161D01*
G01*
X224760Y234122D02*
X226335D01*
X224760Y236878D02*
X226335D01*
X224260Y252122D02*
X225835D01*
X224260Y254878D02*
X225835D01*
X373500Y230000D02*
Y250000D01*
X368500D02*
X373500D01*
X368500Y230000D02*
X373500D01*
X368500D02*
Y250000D01*
X373500Y233333D02*
X386833D01*
X388500Y235000D01*
X386833Y236667D02*
X388500Y235000D01*
X373500Y236667D02*
X386833D01*
X373500Y243333D02*
X386833D01*
X388500Y245000D01*
X386833Y246667D02*
X388500Y245000D01*
X373500Y246667D02*
X386833D01*
X296776Y219067D02*
Y239933D01*
X256224Y232000D02*
Y239933D01*
Y219067D02*
Y227000D01*
Y239933D02*
X296776D01*
X256224Y219067D02*
X296776D01*
X224213Y214122D02*
X225787D01*
X224213Y216878D02*
X225787D01*
X318000Y277500D02*
Y287500D01*
X348000D01*
Y277500D02*
Y287500D01*
X318000Y277500D02*
X348000D01*
X193500Y210000D02*
Y230000D01*
Y210000D02*
X203500D01*
Y230000D01*
X193500D02*
X203500D01*
X200878Y260713D02*
Y262287D01*
X198122Y260713D02*
Y262287D01*
M02*
