M48
;Layer_Color=9474304
;FILE_FORMAT=2:5
INCH,LZ
;TYPE=PLATED
T1F00S00C0.03150
T2F00S00C0.03543
%
T01
X0323657Y0212
X0343343
X0315Y0227157
Y0246843
X0324157Y02565
X0343843
X02855Y0278157
Y0297843
X0246
Y0278157
X0211Y0279157
Y0298843
T02
X03635Y0235
Y0245
X0343Y02825
X0333
X0323
X02915Y02445
X02815
X02715
X02615
Y02145
X02715
X02815
X02915
X01985Y0215
Y0225
M30
