G04 Layer_Physical_Order=2*
G04 Layer_Color=16711680*
%FSLAX25Y25*%
%MOIN*%
G70*
G01*
G75*
%ADD10C,0.01968*%
%ADD11C,0.00984*%
%ADD12C,0.05512*%
%ADD13R,0.05905X0.05905*%
%ADD14C,0.05905*%
%ADD15O,0.03937X0.07874*%
%ADD16O,0.03937X0.07874*%
%ADD17C,0.04724*%
D10*
X55118Y44055D02*
Y59055D01*
X39370Y74803D02*
X55118Y59055D01*
X39370Y84803D02*
X50365Y73809D01*
Y72071D02*
Y73809D01*
X53165Y69271D02*
X70765D01*
X71365Y124471D02*
X74803Y127910D01*
X50365Y72071D02*
X53165Y69271D01*
X70765D02*
X71365Y69871D01*
Y124471D01*
X74803Y127910D02*
Y149606D01*
D11*
X115301Y149671D02*
X124921D01*
Y83491D02*
Y110236D01*
X129921Y115236D02*
Y149606D01*
X134921Y84803D02*
Y110236D01*
Y84803D02*
X145669Y74055D01*
X55118Y99488D02*
X65866Y110236D01*
Y127871D02*
X69803Y131808D01*
Y149606D01*
X75866Y83491D02*
X85302Y74055D01*
X75866Y110236D02*
X115301Y149671D01*
X115486Y74055D02*
X124921Y83491D01*
X129921Y115236D02*
X134921Y110236D01*
X55118Y74055D02*
Y99488D01*
X65866Y110236D02*
Y127871D01*
X75866Y83491D02*
Y110236D01*
X124921Y149606D02*
Y149671D01*
D12*
X145669Y44055D02*
D03*
Y74055D02*
D03*
X85302Y44055D02*
D03*
Y74055D02*
D03*
X115486Y44055D02*
D03*
Y74055D02*
D03*
X55118Y44055D02*
D03*
Y74055D02*
D03*
D13*
X39370Y74803D02*
D03*
D14*
Y84803D02*
D03*
D15*
X124921Y149606D02*
D03*
X134921D02*
D03*
X64803D02*
D03*
X74803D02*
D03*
D16*
X129921D02*
D03*
X69803D02*
D03*
D17*
X75866Y110236D02*
D03*
X65866D02*
D03*
X134921D02*
D03*
X124921D02*
D03*
M02*
