G04 Layer_Physical_Order=1*
G04 Layer_Color=255*
%FSLAX25Y25*%
%MOIN*%
G70*
G01*
G75*
%ADD10C,0.01968*%
%ADD11C,0.00984*%
%ADD12C,0.05512*%
%ADD13R,0.05905X0.05905*%
%ADD14C,0.05905*%
%ADD15O,0.03937X0.07874*%
%ADD16O,0.03937X0.07874*%
%ADD17C,0.04724*%
D10*
X55118Y44055D02*
X85302D01*
X115486D01*
X145669D01*
X74803Y144071D02*
Y149606D01*
Y144071D02*
X78803Y140071D01*
X130921D01*
X134921Y144071D01*
Y149606D01*
D11*
X84899Y110236D02*
X124921D01*
X64803Y130332D02*
X84899Y110236D01*
X64803Y130332D02*
Y149606D01*
D12*
X145669Y44055D02*
D03*
Y74055D02*
D03*
X85302Y44055D02*
D03*
Y74055D02*
D03*
X115486Y44055D02*
D03*
Y74055D02*
D03*
X55118Y44055D02*
D03*
Y74055D02*
D03*
D13*
X39370Y74803D02*
D03*
D14*
Y84803D02*
D03*
D15*
X124921Y149606D02*
D03*
X134921D02*
D03*
X64803D02*
D03*
X74803D02*
D03*
D16*
X129921D02*
D03*
X69803D02*
D03*
D17*
X75866Y110236D02*
D03*
X65866D02*
D03*
X134921D02*
D03*
X124921D02*
D03*
M02*
