G04 Layer_Color=65535*
%FSLAX25Y25*%
%MOIN*%
G70*
G01*
G75*
%ADD11C,0.00984*%
%ADD18C,0.00787*%
%ADD19C,0.01000*%
D11*
X141555Y154921D02*
G03*
X141555Y154921I-492J0D01*
G01*
X81437D02*
G03*
X81437Y154921I-492J0D01*
G01*
D18*
X122126Y155512D02*
G03*
X137716Y155512I7795J-5906D01*
G01*
X62008D02*
G03*
X77598Y155512I7795J-5906D01*
G01*
X145669Y49055D02*
X148669D01*
Y69055D01*
X142669D02*
X148669D01*
X142669Y49055D02*
Y69055D01*
Y49055D02*
X145669D01*
Y69055D02*
Y69955D01*
Y48155D02*
Y49055D01*
X85302D02*
X88302D01*
Y69055D01*
X82302D02*
X88302D01*
X82302Y49055D02*
Y69055D01*
Y49055D02*
X85302D01*
Y69055D02*
Y69955D01*
Y48155D02*
Y49055D01*
X115486D02*
X118486D01*
Y69055D01*
X112486D02*
X118486D01*
X112486Y49055D02*
Y69055D01*
Y49055D02*
X115486D01*
Y69055D02*
Y69955D01*
Y48155D02*
Y49055D01*
X55118D02*
X58118D01*
Y69055D01*
X52118D02*
X58118D01*
X52118Y49055D02*
Y69055D01*
Y49055D02*
X55118D01*
Y69055D02*
Y69955D01*
Y48155D02*
Y49055D01*
X34370Y89803D02*
X44370D01*
Y69803D02*
Y89803D01*
X34370Y69803D02*
X44370D01*
X34370D02*
Y89803D01*
X122126Y155512D02*
X137717D01*
X62008D02*
X77598D01*
X80866Y105236D02*
Y115236D01*
X60866Y105236D02*
X80866D01*
X60866D02*
Y115236D01*
X80866D01*
X139921Y105236D02*
Y115236D01*
X119921Y105236D02*
X139921D01*
X119921D02*
Y115236D01*
X139921D01*
D19*
X35020Y99151D02*
Y98151D01*
X37019Y96152D01*
X39019Y98151D01*
Y99151D01*
X37019Y96152D02*
Y93153D01*
X41018D02*
X43018D01*
X42018D01*
Y99151D01*
X41018Y98151D01*
X82889Y80171D02*
Y86169D01*
X85888D01*
X86888Y85169D01*
Y83170D01*
X85888Y82170D01*
X82889D01*
X84889D02*
X86888Y80171D01*
X91886D02*
Y86169D01*
X88887Y83170D01*
X92886D01*
X113140Y80171D02*
Y86169D01*
X116139D01*
X117139Y85169D01*
Y83170D01*
X116139Y82170D01*
X113140D01*
X115139D02*
X117139Y80171D01*
X119138Y85169D02*
X120138Y86169D01*
X122137D01*
X123137Y85169D01*
Y84170D01*
X122137Y83170D01*
X121137D01*
X122137D01*
X123137Y82170D01*
Y81171D01*
X122137Y80171D01*
X120138D01*
X119138Y81171D01*
X143265Y80171D02*
Y86169D01*
X146264D01*
X147263Y85169D01*
Y83170D01*
X146264Y82170D01*
X143265D01*
X145264D02*
X147263Y80171D01*
X153261D02*
X149263D01*
X153261Y84170D01*
Y85169D01*
X152262Y86169D01*
X150262D01*
X149263Y85169D01*
X52728Y80171D02*
Y86169D01*
X55727D01*
X56726Y85169D01*
Y83170D01*
X55727Y82170D01*
X52728D01*
X54727D02*
X56726Y80171D01*
X58726D02*
X60725D01*
X59725D01*
Y86169D01*
X58726Y85169D01*
X124763Y159923D02*
Y163921D01*
X123764Y164921D01*
X121764D01*
X120765Y163921D01*
Y159923D01*
X121764Y158923D01*
X123764D01*
X122764Y160922D02*
X124763Y158923D01*
X123764D02*
X124763Y159923D01*
X130761Y158923D02*
X126763D01*
X130761Y162922D01*
Y163921D01*
X129762Y164921D01*
X127762D01*
X126763Y163921D01*
X64678Y159871D02*
Y163869D01*
X63679Y164869D01*
X61679D01*
X60680Y163869D01*
Y159871D01*
X61679Y158871D01*
X63679D01*
X62679Y160870D02*
X64678Y158871D01*
X63679D02*
X64678Y159871D01*
X66678Y158871D02*
X68677D01*
X67677D01*
Y164869D01*
X66678Y163869D01*
X66991Y123109D02*
X65991Y124108D01*
X63992D01*
X62992Y123109D01*
Y119110D01*
X63992Y118110D01*
X65991D01*
X66991Y119110D01*
X72989Y118110D02*
X68990D01*
X72989Y122109D01*
Y123109D01*
X71989Y124108D01*
X69990D01*
X68990Y123109D01*
X126046D02*
X125046Y124108D01*
X123047D01*
X122047Y123109D01*
Y119110D01*
X123047Y118110D01*
X125046D01*
X126046Y119110D01*
X128045Y118110D02*
X130045D01*
X129045D01*
Y124108D01*
X128045Y123109D01*
M02*
